/* XPM */
static char *dummy[]={
"32 50 2 1",
". c #000000",
"# c #FFFF00",
"################################",
"################################",
"################################",
"################################",
"................................",
"................................",
"................................",
"................................",
"................................",
"..############################..",
"..############################..",
"..############################..",
"..############################..",
"..####....................####..",
"..####....................####..",
"..####....................####..",
"..####....................####..",
"..####....................####..",
"..####....................####..",
"..####....................####..",
"..####....................####..",
"..####....................####..",
"..####....................####..",
"..####....................####..",
"..####....................####..",
"..####....................####..",
"..####....................####..",
"..####....................####..",
"..####....................####..",
"..####....................####..",
"..####....................####..",
"..####....................####..",
"..####....................####..",
"..############################..",
"..############################..",
"..############################..",
"..############################..",
"................................",
"................................",
"................................",
"................................",
"................................",
"################################",
"################################",
"################################",
"################################",
"################################",
"################################",
"################################",
"################################"};
